<svg xmlns="http://www.w3.org/2000/svg" width="500" height="500" viewBox="0 0 500 500">
  <rect width="500" height="500" fill="#f8f8f8"></rect>
  <rect x="20" y="20" width="460" height="460" fill="none" stroke="#222" stroke-width="8"></rect>

  <!-- Hall -->
  <rect x="210" y="20" width="80" height="460" fill="#ffffff"></rect>

  <!-- Rooms -->
  <rect x="20" y="20" width="190" height="130" fill="#fff" stroke="#222" stroke-width="4"></rect>
  <rect x="20" y="150" width="190" height="120" fill="#fff" stroke="#222" stroke-width="4"></rect>
  <rect x="20" y="270" width="190" height="210" fill="#fff" stroke="#222" stroke-width="4"></rect>

  <rect x="290" y="20" width="190" height="100" fill="#fff" stroke="#222" stroke-width="4"></rect>
  <rect x="290" y="120" width="190" height="180" fill="#fff" stroke="#222" stroke-width="4"></rect>
  <rect x="290" y="300" width="190" height="180" fill="#fff" stroke="#222" stroke-width="4"></rect>

  <!-- Doors -->
  <line x1="210" y1="85" x2="210" y2="115" stroke="#fff" stroke-width="8"></line>
  <line x1="210" y1="200" x2="210" y2="230" stroke="#fff" stroke-width="8"></line>
  <line x1="210" y1="360" x2="210" y2="390" stroke="#fff" stroke-width="8"></line>

  <line x1="290" y1="60" x2="290" y2="90" stroke="#fff" stroke-width="8"></line>
  <line x1="290" y1="190" x2="290" y2="220" stroke="#fff" stroke-width="8"></line>
  <line x1="290" y1="370" x2="290" y2="400" stroke="#fff" stroke-width="8"></line>
</svg>